<?xml version="1.0" encoding="UTF-8" standalone="no"?>
<svg
   width="1000"
   height="1000"
   viewBox="0 0 1000 1000"
   fill="none"
   version="1.1"
   id="svg25"
   xmlns:xlink="http://www.w3.org/1999/xlink"
   xmlns="http://www.w3.org/2000/svg"
   xmlns:svg="http://www.w3.org/2000/svg">
  <rect
     x="20"
     y="20"
     width="960"
     height="960"
     rx="480"
     fill="url(#paint0_linear_1955_10320)"
     fill-opacity="0.4"
     id="rect2" />
  <rect
     x="20"
     y="20"
     width="960"
     height="960"
     rx="480"
     stroke="url(#paint1_linear_1955_10320)"
     stroke-width="40"
     id="rect4"
     style="stroke:#e5ff44" />
  <defs
     id="defs23">
    <linearGradient
       id="paint0_linear_1955_10320"
       x1="500"
       y1="0"
       x2="500"
       y2="1000"
       gradientUnits="userSpaceOnUse"
       xlink:href="#paint1_linear_1955_10320">
      <stop
         stop-color="#F35422"
         id="stop8"
         style="stop-color:#e5ff44;stop-opacity:1" />
      <stop
         offset="1"
         stop-opacity="0"
         id="stop10" />
    </linearGradient>
    <linearGradient
       id="paint1_linear_1955_10320"
       x1="782.5"
       y1="73.5"
       x2="185.5"
       y2="894.5"
       gradientUnits="userSpaceOnUse">
      <stop
         stop-color="#F35422"
         id="stop13" />
      <stop
         offset="1"
         stop-color="#A5310C"
         id="stop15" />
    </linearGradient>
  </defs>
  <path
     style="fill:#e5ff44;stroke-width:2.34975"
     d="m 310.20514,746.65966 c -26.10534,-7.98067 -49.32208,-34.589 -53.13225,-60.89397 -1.14804,-7.92593 -1.60637,-97.19543 -1.0185,-198.37664 1.1717,-201.66871 0.22834,-192.68203 22.57134,-215.02502 22.49386,-22.49385 12.25727,-21.5025 222.03328,-21.5025 209.77606,0 199.53936,-0.99135 222.03326,21.5025 22.527,22.52699 21.5025,11.6978 21.5025,227.2894 0,215.59163 1.0245,204.76245 -21.5025,227.28942 -22.398,22.398 -13.0255,21.44089 -216.77711,22.13701 -102.14485,0.34898 -190.21436,-0.7401 -195.71002,-2.4202 z M 403.4602,672.2299 c 20.52944,-15.65856 23.61245,-26.7433 23.61245,-84.89676 0,-51.42563 0,-51.42563 10.24278,-61.66841 10.2428,-10.2428 10.2428,-10.2428 56.33535,-10.2428 46.09256,0 46.09256,0 56.33533,10.2428 10.24281,10.24278 10.24281,10.24278 10.30044,62.19797 0.0524,47.26476 0.76422,53.19685 7.88422,65.70876 14.2217,24.99151 51.8212,37.37611 75.8107,24.97067 5.4,-2.79244 14.7828,-10.73157 20.8506,-17.6425 11.0325,-12.56532 11.0325,-12.56532 11.0194,-169.25236 -0.012,-149.36036 -0.3337,-157.21298 -6.8707,-167.93408 -21.9986,-36.0791 -81.44,-32.61888 -100.8676,5.87173 -7.1564,14.17853 -7.88425,20.59081 -7.88425,69.46133 0,53.84079 0,53.84079 -10.24281,64.08357 -10.24277,10.2428 -10.24277,10.2428 -56.33533,10.2428 -46.09255,0 -46.09255,0 -56.33535,-10.2428 -10.24278,-10.24278 -10.24278,-10.24278 -10.24278,-65.17251 0,-62.12308 -2.80401,-72.52952 -23.87311,-88.5997 -10.57206,-8.06371 -15.77163,-9.43852 -35.69679,-9.43852 -20.00805,0 -25.10637,1.3608 -35.87707,9.57602 -23.67044,18.05433 -24.06837,21.29625 -22.94278,186.91564 1.00201,147.4341 1.00201,147.4341 9.6618,160.06756 13.48845,19.67781 29.61088,27.61513 53.1956,26.18897 14.77672,-0.89356 22.88209,-3.54389 31.9199,-10.43738 z m -54.68697,-33.56395 c -5.19541,-5.74086 -5.79926,-21.19119 -5.79926,-148.38164 0,-133.09145 0.4009,-142.33634 6.40811,-147.77279 7.30045,-6.60682 18.94006,-7.48265 28.86337,-2.17186 6.53349,3.49662 6.77786,8.85699 6.77786,148.67443 0,127.1888 -0.67795,145.72501 -5.50646,150.55351 -7.435,7.43501 -23.62886,6.96006 -30.74362,-0.90165 z m 259.01154,0.90165 c -4.8262,-4.82618 -5.5065,-23.19388 -5.5065,-148.67444 0,-157.28998 -0.425,-154.1809 21.0763,-154.1809 20.8021,0 20.973,1.25665 20.973,154.1809 0,119.77713 -0.741,139.66298 -5.4548,146.39299 -6.4779,9.24844 -22.9148,10.45468 -31.088,2.28145 z"
     id="path2" />
</svg>
