<?xml version="1.0" encoding="UTF-8" standalone="no"?>
<svg
   width="1000"
   height="1000"
   viewBox="0 0 1000 1000"
   fill="none"
   version="1.1"
   id="svg6"
   xmlns="http://www.w3.org/2000/svg"
   xmlns:svg="http://www.w3.org/2000/svg">
  <defs
     id="defs10" />
  <rect
     width="1000"
     height="1000"
     rx="500"
     fill="#FFF5D9"
     fill-opacity="0.4"
     id="rect2" />
  <path
     style="fill:#fff5d9;stroke-width:2.34975"
     d="m 310.20513,746.65966 c -26.10534,-7.98067 -49.32208,-34.589 -53.13225,-60.89397 -1.14804,-7.92593 -1.60637,-97.19543 -1.0185,-198.37664 1.1717,-201.66871 0.22834,-192.68203 22.57134,-215.02502 22.49386,-22.49385 12.25727,-21.5025 222.03328,-21.5025 209.77601,0 199.53941,-0.99135 222.03328,21.5025 22.52697,22.52699 21.5025,11.6978 21.5025,227.2894 0,215.59163 1.02447,204.76245 -21.5025,227.28942 -22.39802,22.398 -13.02547,21.44089 -216.77713,22.13701 -102.14485,0.34898 -190.21436,-0.7401 -195.71002,-2.4202 z m 93.25506,-74.42976 c 20.52944,-15.65856 23.61245,-26.7433 23.61245,-84.89676 0,-51.42563 0,-51.42563 10.24278,-61.66841 10.2428,-10.2428 10.2428,-10.2428 56.33535,-10.2428 46.09256,0 46.09256,0 56.33533,10.2428 10.24281,10.24278 10.24281,10.24278 10.30044,62.19797 0.0524,47.26476 0.76422,53.19685 7.88424,65.70876 14.22169,24.99151 51.82117,37.37611 75.81065,24.97067 5.39998,-2.79244 14.78278,-10.73157 20.85066,-17.6425 11.0325,-12.56532 11.0325,-12.56532 11.01939,-169.25236 -0.0118,-149.36036 -0.33375,-157.21298 -6.87074,-167.93408 -21.99859,-36.0791 -81.43999,-32.61888 -100.86759,5.87173 -7.15643,14.17853 -7.88424,20.59081 -7.88424,69.46133 0,53.84079 0,53.84079 -10.24281,64.08357 -10.24277,10.2428 -10.24277,10.2428 -56.33533,10.2428 -46.09255,0 -46.09255,0 -56.33535,-10.2428 -10.24278,-10.24278 -10.24278,-10.24278 -10.24278,-65.17251 0,-62.12308 -2.80401,-72.52952 -23.87311,-88.5997 -10.57206,-8.06371 -15.77163,-9.43852 -35.69679,-9.43852 -20.00805,0 -25.10637,1.3608 -35.87707,9.57602 -23.67044,18.05433 -24.06837,21.29625 -22.94278,186.91564 1.00201,147.4341 1.00201,147.4341 9.6618,160.06756 13.48845,19.67781 29.61088,27.61513 53.1956,26.18897 14.77672,-0.89356 22.88209,-3.54389 31.9199,-10.43738 z m -54.68697,-33.56395 c -5.19541,-5.74086 -5.79926,-21.19119 -5.79926,-148.38164 0,-133.09145 0.4009,-142.33634 6.40811,-147.77279 7.30045,-6.60682 18.94006,-7.48265 28.86337,-2.17186 6.53349,3.49662 6.77786,8.85699 6.77786,148.67443 0,127.1888 -0.67795,145.72501 -5.50646,150.55351 -7.435,7.43501 -23.62886,6.96006 -30.74362,-0.90165 z m 259.01149,0.90165 c -4.82618,-4.82618 -5.50646,-23.19388 -5.50646,-148.67444 0,-157.28998 -0.42502,-154.1809 21.07626,-154.1809 20.80214,0 20.97308,1.25665 20.97308,154.1809 0,119.77713 -0.74099,139.66298 -5.45488,146.39299 -6.47783,9.24844 -22.91477,10.45468 -31.088,2.28145 z"
     id="path2" />
</svg>
